<svg xmlns="http://www.w3.org/2000/svg" width="31.258" height="32.153" viewBox="0 0 31.258 32.153">
  <g id="Group_11" data-name="Group 11" transform="translate(-613.659 -382.177)">
    <g id="Group_10" data-name="Group 10" transform="translate(153.76 157.107)">
      <g id="Group_9" data-name="Group 9" transform="translate(460.154 225.431)">
        <g id="FreeSample-Vectorizer-io-image_17c33502-9ee4-4e13-ad72-97aa343ea7ad" transform="translate(0 0)">
          <g id="Group_3" data-name="Group 3" transform="translate(2.831 29.011)">
            <path id="Path_3" data-name="Path 3" d="M245.536,435.263a2.311,2.311,0,0,1,.912.06,17.125,17.125,0,0,1,2.16.4c.213.061.973.275.73.609-.214.335-.883.425-1.247.486a25.424,25.424,0,0,1-3.711.517,112.169,112.169,0,0,1-15.329.091,32.628,32.628,0,0,1-4.866-.578,4.765,4.765,0,0,1-1.125-.335c-.122-.061-.3-.152-.274-.335.03-.122.182-.213.3-.274a9.568,9.568,0,0,1,1-.274,6.858,6.858,0,0,1,1.916-.213c.821.061,1.612.3,2.433.365a14.872,14.872,0,0,0,2.859,0,11.908,11.908,0,0,1,1.826-.243c.851.061,1.734.213,2.585.3.548.061,1.125,0,1.673.092a8.2,8.2,0,0,1,.913.365,4.821,4.821,0,0,0,1.855.274,14.492,14.492,0,0,0,3.924-.791c.486-.152.973-.4,1.46-.516" transform="translate(-222.782 -435.23)" fill="none" stroke="#d9d9d9" stroke-width="0.8"/>
          </g>
          <g id="Group_4" data-name="Group 4" transform="translate(7.057 3.648)">
            <path id="Path_4" data-name="Path 4" d="M273.8,156.24a4.657,4.657,0,0,0-.335,1.277,2.308,2.308,0,0,1,0,.791c-.061.091-.3.152-.4.213a6.539,6.539,0,0,0-.669.639,5.819,5.819,0,0,0-1.308,2.676,5.13,5.13,0,0,0,.061,2.037,5.351,5.351,0,0,1,.3.913c0,.183-.213.3-.335.425a2.692,2.692,0,0,0-.547.761c-.061.091-.122.335-.275.3s-.335-.577-.395-.73a6.286,6.286,0,0,1-.639-2.464,8.861,8.861,0,0,1,.061-1.551,7.232,7.232,0,0,1,2.494-4.2,3.362,3.362,0,0,1,1.946-1.065m7.757.031c.152-.122.516.152.669.213a8.887,8.887,0,0,1,1.764,1.429A7,7,0,0,1,285.7,164.3a6.194,6.194,0,0,1-.517,1.429c-.06.122-.152.4-.274.456-.152.061-.243-.152-.274-.244a5,5,0,0,0-.608-.791c-.122-.091-.335-.213-.335-.365-.03-.183.152-.456.183-.639a5.821,5.821,0,0,0,.213-1.459,5.443,5.443,0,0,0-1.186-3.316,8.608,8.608,0,0,0-.73-.761,1.668,1.668,0,0,1-.425-.365c-.122-.152-.061-.425-.061-.608a3.029,3.029,0,0,0-.152-.913c-.031-.091-.122-.335,0-.425" transform="translate(-269.268 -156.24)" fill="none" stroke="#f8a346" stroke-width="0.669"/>
            <g id="Group_8" data-name="Group 8" transform="translate(6.717 1.631)">
              <path id="Path_8" data-name="Path 8" d="M346.029,174.844a11.041,11.041,0,0,1,1.572-.128,11.91,11.91,0,0,1,1.608.128" transform="translate(-346.029 -174.716)" fill="none" stroke="#fbcb07" stroke-width="0.5"/>
              <path id="Path_9" data-name="Path 9" d="M346.029,174.844a11.041,11.041,0,0,1,1.572-.128,11.91,11.91,0,0,1,1.608.128" transform="translate(-346.029 -174.262)" fill="none" stroke="#fbcb07" stroke-width="0.5"/>
              <path id="Path_10" data-name="Path 10" d="M346.029,174.844a11.041,11.041,0,0,1,1.572-.128,11.91,11.91,0,0,1,1.608.128" transform="translate(-346.029 -173.807)" fill="none" stroke="#fbcb07" stroke-width="0.5"/>
            </g>
          </g>
          <g id="Group_5" data-name="Group 5" transform="translate(5.272 1.362)">
            <path id="Path_5" data-name="Path 5" d="M257.451,131.83c-.152.425-.577.669-.882.943a3.4,3.4,0,0,1-.608.547c-.274.152-.578.183-.852.335a7.917,7.917,0,0,0-2.4,2.19,7.02,7.02,0,0,0-1.155,5.475,8.319,8.319,0,0,0,.577,1.521,2.464,2.464,0,0,1,.3.73,3.514,3.514,0,0,1-.213,1.095,2.23,2.23,0,0,1-.244.76c-.091.092-.213-.06-.274-.121a4.2,4.2,0,0,1-.547-.73,8.118,8.118,0,0,1-1.43-3.376,8.976,8.976,0,0,1,4.988-9.186,6.615,6.615,0,0,1,2.8-.912m10.037,14.356a4.768,4.768,0,0,1-.426-1.46,1.418,1.418,0,0,1-.091-.517,3.321,3.321,0,0,1,.365-.73,6.654,6.654,0,0,0,.365-1A6.484,6.484,0,0,0,268,139.1a7.444,7.444,0,0,0-3.041-5.049,7.055,7.055,0,0,0-1.035-.608c-.121-.031-.3.03-.425-.061-.274-.183-.486-.517-.76-.73a4.671,4.671,0,0,1-.517-.578c-.122-.122-.274-.213-.3-.4,0-.121-.061-.425.031-.516.061-.092.213-.061.3-.061a4.219,4.219,0,0,1,.822.243,11.6,11.6,0,0,1,3.072,1.521,8.433,8.433,0,0,1,2.068,11.892,2.945,2.945,0,0,1-.669.7" transform="translate(-249.64 -131.095)" fill="none" stroke="#fbcb04" stroke-width="0.8"/>
          </g>
          <g id="Group_6" data-name="Group 6" transform="translate(8.825 5.765)">
            <path id="Path_6" data-name="Path 6" d="M299.4,179.537c.122-.061.3.122.4.183a7.392,7.392,0,0,1,.822.882,5.328,5.328,0,0,1,1.095,4.015,9.274,9.274,0,0,1-.213.974c-.061.091-.091.274-.213.3-.122.061-.244-.091-.335-.152a4.907,4.907,0,0,0-.669-.4c-.122-.061-.274-.091-.335-.213-.061-.153.182-.365.243-.487a1.613,1.613,0,0,0,.092-.851c-.122-.669-.639-1.1-.852-1.7-.122-.4.122-.821-.031-1.247-.06-.152-.243-.213-.274-.365a1.493,1.493,0,0,1,.274-.943m-8.455.061c.3-.122.425.456.456.669.091.3-.214.365-.275.608a6.308,6.308,0,0,0,0,1.065c.031.3-.243.608-.395.852a2.668,2.668,0,0,0-.487,1.4,1.377,1.377,0,0,0,.244.7c.061.091.213.244.152.365-.061.091-.243.152-.335.213a5.5,5.5,0,0,1-.943.486c-.244.061-.3-.244-.365-.425a4.633,4.633,0,0,1-.275-1.552,5.536,5.536,0,0,1,1.217-3.467,2.627,2.627,0,0,1,1-.912" transform="translate(-288.72 -179.525)" fill="none" stroke="#f58439" stroke-width="0.8"/>
          </g>
          <g id="Group_7" data-name="Group 7" transform="translate(0)">
            <path id="Path_7" data-name="Path 7" d="M208.013,116.291a.611.611,0,0,1-.213.183,2.017,2.017,0,0,1-.425,0c-.365,0-.821.121-1.035-.244a2.362,2.362,0,0,1,2.556.669c.061.122-.061.183-.092.3-.03.091.061.213.122.3.183-.183.183-.274.031-.486m.152.335a2.022,2.022,0,0,1-.274.638c-.244.031-.639-.182-.882-.213a5.618,5.618,0,0,0-1.886.031c-.182.03-.76.3-.912.182-.183-.121,0-.486.03-.638,0-.122-.122-.183-.122-.3a1.343,1.343,0,0,1,.974-.73c.122.031.183.153.3.183l.031-.03-.183-.214.152-.03m-.243.061.091-.031m1.916.061-.244.214m-1.49-.061h.091m1.946,0c-.182.182-.274.182-.486.061m-2.706.73a2.375,2.375,0,0,1,1-.73m2.007.152.547.517m.122-.3-.183.183m-3.68.03c-.274.335-.152.73-.3,1.1a2.106,2.106,0,0,1-.73.821l.153.183-.244.213-.183-.152.244-.244M205,117.173l.183.183m3.985.122c.03.213.061.365-.213.365m-.061-.3v.03m.3.3c0,.486.517.882.852,1.185-.274.365.365.365.03,0m-3.588-1.034a4.915,4.915,0,0,1,2.1.213,1.989,1.989,0,0,1,.7.4c.182.274,0,.669-.153.913a2.533,2.533,0,0,1-1.795,1.065,2.646,2.646,0,0,1-2.311-.883.982.982,0,0,1-.213-1.125c.3-.426,1.185-.487,1.673-.578m2.828.456.031.03-.031-.03m-5.2.486a6.133,6.133,0,0,1,.639.913c.091.091.274.243.274.4-.031.121-.213.182-.3.213a2,2,0,0,0-.577.547,5.023,5.023,0,0,0-.548,1.734m.548-3.711.121.122m-.365-.061.091.031m5.931,0,.031.03m-6.114,0,.122.153m6.63,3.254.213.213.031-.03c.061-.365.213-.517-.061-.821-.061.152-.061.638-.274.638-.152,0-.122-.274-.152-.365a2.852,2.852,0,0,0-.335-1.125,1.919,1.919,0,0,0-.7-.608c-.091-.061-.274-.122-.274-.244,0-.243.365-.517.456-.73.061-.091.061-.213.152-.274s.183,0,.244,0m-5.87-.03.061.061m6.022-.031.365.365-.03.03-.335-.4m-6.661.517-.03-.152.3-.335m.092.03.03.031m.061.121-.183.183-.091-.061-.031-.03-.03-.031-.031-.03m.092.03.03.031m6.783-.031.244.183-.183.183v.03l.183-.183m-7.239-.121.183.182-.061.061-.031.031-.06-.061m6.874-.213.061.152.182-.122m-6.874.031-.091.091m-.3,0,.183.213-.03.031-.031.03-.183-.152-.03.03c.213.3.03.578-.031.943a3.584,3.584,0,0,0,.092,1.277c.061.214.091.487.3.578m-.274-2.92-.061.061m7.452-.061-.122.244v.03l.183-.182m-.335-.061.061.091m-7.147,0,.03.031m.152-.031-.03.031m7.026,0,.061.121m-7.391-.091.183.213m7.452-.182-.213.121M203.208,120l.153.274m7.512-.244-.213.213.031.031.182-.214m-7.421,0-.03.031m-.274.03.182.214m-.182-.183.152.274m7.36-.244.031.031m.243-.031-.213.244v.03l.031.031.213-.213m-7.847-.031.152.274m7.422-.182.061.06m-7.726-.03a5.89,5.89,0,0,0-.092,1.46,5.045,5.045,0,0,1,.244.913c0,.335-.486.425-.213.821.091-.091.152-.213.243-.3.122-.121.3,0,.365.153a2.018,2.018,0,0,1,0,.851c-.031.092-.061.365-.213.3-.092-.031-.092-.183-.122-.274-.091-.244-.091-.486-.274-.669l-.092.852-.274.516.153.244-.031.03-.03.031-.183-.152-.03.03v.031l.182.182-.03.031-.031.03-.182-.152-.031.03v.031c.092.091.152.152.092.3l-.183-.152-.031.031v.03a.554.554,0,0,1,.153.213c0,.122-.092.213-.122.335-.061.335.091.578-.183.852a1.144,1.144,0,0,1,.031-1.125l.091.091.03.031.031.03.03.031m8.668-5.657-.213.274-.03-.03v-.122m-1.43,0c-.274.274-.456.061-.791.091a5.622,5.622,0,0,1-1.581.335c-.7-.061-1.46-.547-2.1-.152-1.155.76-1.095,2.646-.547,3.741.152.3.456.943.821,1.035.122.03.213-.061.3-.153a3.907,3.907,0,0,1,.608-.335,1.115,1.115,0,0,1,.547,0c.152.031.274.153.456.153.335,0,.547-.244.943-.153a1.739,1.739,0,0,1,.669.335c.091.092.213.213.335.122a1.931,1.931,0,0,0,.7-.852,3.924,3.924,0,0,0,.182-3.254,2.279,2.279,0,0,0-.73-.7m1.886-.213a3.329,3.329,0,0,1-.031,1.642m-1.612-1.612-.213.213m1.612-.091v1.308m-3.832-.244c.335-.152.516.425.213.578-.335.152-.578-.456-.213-.578m3.8.365.213.213m-.213-.061.182.183m-.213-.061.183.182m-.213-.091.182.183m-.243-.122.213.213m-.335-.091.244.243-.031.031-.213-.213m-2.92.3.152.153v.03c-.213.091-.3-.061-.121-.213a1.323,1.323,0,0,1,.76-.244,2.318,2.318,0,0,1,.913.152c.213.092.243.275-.031.275l.152-.244m-4.745,0a2.3,2.3,0,0,1,1.43-.092c.091,0,.608.183.4.365-.092.091-.426-.091-.548-.122a2.874,2.874,0,0,0-.882.031c-.091.03-.335.121-.425.061s-.031-.183,0-.244l.213.213m5.931-.244c.335.122.4.3.152.548-.122-.274-.425-.244-.486.061a1.6,1.6,0,0,0,.091,1.064c.153.214.274-.213.274-.3a1.273,1.273,0,0,0,.061-.335,2.615,2.615,0,0,0,.061-.486m-4.44-.426-.183.183m1.429,0a3.532,3.532,0,0,1,1.491-.061m-1.916.913a.675.675,0,0,0-.091.486.111.111,0,0,0,.213,0c.091-.213-.031-.365-.092-.547a1.137,1.137,0,0,1-.03-.456c0-.183-.061-.3.152-.365m.031.06-.153.153m3.833-.092v1.217l.486.821.213.425-.152.4v.7l.122.3-.244.274a2.322,2.322,0,0,0,.791.487,8.2,8.2,0,0,1,1.155.882c.244.243.548.547.275.821a4.867,4.867,0,0,0-.761-.821c-.091-.092-.243-.244-.4-.183-.122.031-.152.244-.182.335-.153.365-.275.73-.4,1.1-.517,1.52-.791,3.132-1.156,4.684-.152.608-.3,1.186-.456,1.795-.03.121-.213.486-.121.608.061.091.243,0,.3-.031.213-.091.7-.213.761-.456.091-.425-.092-.973-.031-1.429a19.355,19.355,0,0,1,.852-2.555c.091-.335.152-.639.213-.974.031-.091.061-.274.213-.213.183.061.061.486.031.608a8.077,8.077,0,0,1-.335,1.216c-.061.214-.244.456-.214.669a2.131,2.131,0,0,0,.244.608c.183.365.365.761.547,1.125a6.807,6.807,0,0,1,.517,1.065c.061.153-.152.244-.061.4a1.942,1.942,0,0,0,.639.578,10.037,10.037,0,0,0,1.581.882c.4.183.822.335,1.217.517.122.061.243.243.365.243.092,0,.244-.213.3-.274-.3-.121-.365.335-.639.3a11.955,11.955,0,0,1-1.429-.3,5.862,5.862,0,0,1-2.4-.638,1.972,1.972,0,0,1-.7-.882,3.491,3.491,0,0,0-.122-.548c-.091-.182-.274-.3-.365-.455a1.227,1.227,0,0,1-.152-.73,4.013,4.013,0,0,1,.061-.852c.03-.122.06-.274.213-.274.213.03.365.425.425.577a14.1,14.1,0,0,0,.943,1.765M205.185,123.5l.031.03-.183.214-.031-.031-.061-.152.244-.061m3.68.03c.213-.06.274.031.153.214l-.183-.214H208.8l-.03.031.213.183m-3.771-.214c.121.031.425.061.455.214.031.274-.516.061-.608,0m.974.091-.183-.183c.091-.061.456-.243.456,0-.03.213-.456.244-.608.183m-2.737-.274v.061m5.14-.061.03.03-.213.214c-.183-.183,0-.244.183-.244m.03.03c.122,0,.517.153.244.274a.536.536,0,0,1-.425-.06m.547.091.243-.031.031-.03-.152-.213.03-.031.274.183m-3.224-.091.152-.061m2.616.03.153-.03m.152.213.091-.03m-3.771,2.25c.335-.122.516-.516.851-.638.4-.122.7.091,1.065.122.3,0,.517-.244.822-.214.669.092,1.277.943,1.7,1.4a.4.4,0,0,0,.639-.152c.03-.122-.122-.183-.213-.183-.244-.03-.73-.182-.791-.486-.031-.122.122-.244.213-.3a3.932,3.932,0,0,0,.547-.7c.031-.091.122-.274.244-.213.091.061.122.274.152.365.092.365.213.73.3,1.1a3.7,3.7,0,0,1,0,2.737c-.092.213-.335-.092-.426.091a5.043,5.043,0,0,0-.061.669,3.5,3.5,0,0,1-.455,1.095c-.092.122-.153.335-.275.426-.213.152-.365-.486-.547-.244-.152.213-.152.608-.274.852a5.605,5.605,0,0,1-1.034,1.216c-.122.122-.456.547-.669.487-.183-.031-.092-.487-.214-.639-.091-.091-.243-.061-.365-.122a2.469,2.469,0,0,1-.547-.578,4.146,4.146,0,0,1-.426-.729c-.061-.122-.061-.335-.121-.456-.183-.274-.3.4-.517.243a1.084,1.084,0,0,1-.244-.365,3.455,3.455,0,0,1-.517-1.065,5.534,5.534,0,0,0-.03-.73c-.091-.244-.3.091-.425-.031a2.11,2.11,0,0,1-.275-1.216,7.583,7.583,0,0,1,.426-2.342c.03-.152.091-.669.243-.73.183-.061.3.183.365.3a8.487,8.487,0,0,0,.791,1.034l.122-.122-.031-.03-.274.274.183-.122m-2.342-1.186.182.183-.06.061v.031l-.031.03-.03.031m8.728,2.189-.121.061.243-.243c-.061.152-.4.213-.456,0-.091-.3-.091-.609-.152-.913a4.194,4.194,0,0,1-.243-.882c0-.153.091-.578.3-.456a1.475,1.475,0,0,1,.365.486c.091.183.182.335.274.517m-8.821-.943c.244-.153.426.152.426.4a7.861,7.861,0,0,1-.365,1.4c0,.121,0,.425-.121.486-.153.152-.456-.335-.487-.456m.3-1.885.183.183m-.244-.092-.061.061m.091.061.031.031m-.152,0-.061.06m.091.061.03.031m.153-.031-.031.031m-.3.03.182.213m-.182-.182-.061.061m.3,0-.03.03m-.183.031.031.03m-.183.03.183.214m-.214-.153.183.244m.092-.213-.031.03m-.274.031.183.213m-.213-.152v.03m4.714.213-.091-.03c.3-.4.577-.031.882.183.425.3,1.277.7,1.764.425m2.495-.821a1.239,1.239,0,0,1,0,1.216m-3.072-1.035.274-.121m-7,.06.183.183m4.5,0h-.152l.03-.061.031-.03h.061m.638,0c-.152.152-.608.122-.638.365-.031.122.335.4.456.426.182,0,.365-.153.577-.122.244.03.456.183.7.213a2.95,2.95,0,0,0,1.034.03l-.152-.274m-2.555-.121c-.213.243-.365.091-.639.182a3.126,3.126,0,0,1-1.582.213c-.182-.06-.73-.152-.7-.425.03-.122.152-.122.244-.122a8.129,8.129,0,0,0,.76-.335m1.7.183-.092-.03.031-.061.03-.031h.061m.244,0,.061.061m2.4-.061-.214.213M205,126.146c-.061.152-.274.3-.243.455s.365.092.456.092a6.8,6.8,0,0,0,1.307-.486m.213-.061.031.061m-.092,0,.031.03m.517,0c.213.274-.244.547-.517.547m-.061-.486.091.091m2.829.517h.061m2.037,0-.152.335m-9.186-.3-.091.031m-.122,0,.091.061m.183,0-.091.03m9.337-.03.182.183m-9.671-.122.121.03m-.03.092c.061.091.213.243.152.365-.03.122-.213.183-.3.213-.275.153-.578.3-.852.456-.244.183-.639.3-.365.608a6.984,6.984,0,0,1,1.369-.791c.152-.091.4-.243.547-.152.091.031.091.152.122.244a2.594,2.594,0,0,0,.183.7c.121.3.365.517.486.791a3.947,3.947,0,0,1,.183.547c.152.335.365.639.547.974.152.244.365.973.669.486.213.092.3.3.425.486a8.446,8.446,0,0,1,.639.822c.061.122.061.3.122.425.091.122.243,0,.335.092s0,.3.091.425c.091.091.274.122.4.213h.03l.061-.213-.243.03m4.745-6.539h.03m.244.214a.732.732,0,0,1-.244.182c-.122.031-.274-.061-.365.061-.244.335-.183.943-.4,1.338-.091.153-.274.274-.335.426-.183.365-.3.79-.456,1.155a25.315,25.315,0,0,1-3.042,5.384,7.692,7.692,0,0,1-1.764,1.673c-.091.091-.669.486-.73.274-.061-.152.152-.274.244-.335a6.209,6.209,0,0,0,1.065-.761,12.939,12.939,0,0,0,2.616-3.649c.183-.365.76-1.035.425-1.369h-.03c-.274.4-.608.7-.852,1.1-.213.3-.365.638-.547.943a9.2,9.2,0,0,1-2.555,2.525,4.784,4.784,0,0,1-1.7.608c-.274.03-.7-.214-.913-.031a.57.57,0,0,0,.031.913c.091.061.365.122.365.274-.03.152-.243.091-.335.061-.335-.091-.486-.152-.76.122-.061.061-.152.152-.152.243,0,.122.152.244.243.3.274.213.578.4.882.608a3,3,0,0,0,1.46.3c.639.091,1.308.182,1.946.274a3.547,3.547,0,0,0,1.491.061,3.864,3.864,0,0,0,2.159-2.312,45.652,45.652,0,0,0,1.826-6.722,17.445,17.445,0,0,1,.669-2.159c.091-.213.335-.639.213-.882-.061-.183-.426-.122-.578-.274l-.03.03a5.362,5.362,0,0,1-.487,1.49q-.547,1.46-1.185,2.92c-.122.3-.275.639-.426.943-.03.122-.152.274-.122.4,0,.092.092.183.153.244-.183.091-.274,0-.183-.183m2.464-6.144-.244.183m.031.061.03.03m.669-.03-.213.213m-.244.061a7.768,7.768,0,0,1-.669,1.946c-.3.852-.638,1.7-1,2.525a5.813,5.813,0,0,1-.638,1.307m-8.973-5.292a2.178,2.178,0,0,0-.638.852c-.031.152.121.213.121.365a7.5,7.5,0,0,1-.213.791c-.243.852-.486,1.734-.7,2.586a11.18,11.18,0,0,0-.426,1.673c-.03.4.274.274.548.365.091.031.3.122.213.275-.092.091-.365,0-.487,0a1.75,1.75,0,0,0-1.034.182,9.2,9.2,0,0,0-1.795,1.46,4.374,4.374,0,0,1-.791.7c-.274.091-.669-.092-.943-.092a3.132,3.132,0,0,0-1.551.426v.03c.061.061.152.152.243.152s.275-.091.365.031c.122.152-.152.547-.3.577-.121.031-.213-.091-.3-.152a1.873,1.873,0,0,1-.761.608c-.213.092-.395-.03-.516.244a.774.774,0,0,0,.274.791,2.149,2.149,0,0,0,1.277.425,1.028,1.028,0,0,0,.608,0c-.03-.061-.122-.122-.122-.213-.061-.152-.061-.608-.3-.639-.153-.03-.183.153-.153.244a.665.665,0,0,0,.365.4m6.539-10.949a3.064,3.064,0,0,1,.669-.882m-.608.274.183.183m-.244-.092.183.183m13.687.061-.213.122m.243-.061-.213.122m.244-.061-.214.121m-13.9-.121.152.274m13.991-.244-.213.213.03.031.183-.213m-14.2.06.183.214m-.183-.183.153.274m13.839-.244.03.031m.244-.031-.213.244.03.03.213-.182m-14.325-.031.152.274m-.183-.182.153.274m13.929-.274.061.061m.213-.061a4.7,4.7,0,0,1,.426,1.307c.244.882.486,1.765.7,2.646a5.778,5.778,0,0,0,.274,1.247c.061.121.244.182.365.243a4.923,4.923,0,0,1,.669.426c.73.547,1.308,1.338,2.068,1.825l-.152.244a19.906,19.906,0,0,0-2.616-2.19,1.778,1.778,0,0,0-.973-.152c-.091.03-.365.091-.425,0-.092-.153.121-.244.213-.275.335-.091.547.031.486-.425-.152-.852-.425-1.673-.639-2.494a14.018,14.018,0,0,0-.608-2.221m-14.173-.091a5.611,5.611,0,0,0-.456,1.429c-.213.822-.456,1.643-.669,2.464a5.142,5.142,0,0,1-.274,1.186c-.152.274-.73.456-1,.639a11.982,11.982,0,0,0-2.038,1.885l.092.091.03-.03.031-.031-.031-.03-.03.03-.031.092m.669,2.007a2.712,2.712,0,0,1,1.338-.456l.031-.03-.183-.183a3.786,3.786,0,0,1,1-.456,7.824,7.824,0,0,0,2.281-1.369,3.684,3.684,0,0,0,.608-1.064,2.552,2.552,0,0,0,.274-.669c.031-.122-.121-.214-.091-.335a4.57,4.57,0,0,1,.425-.973c.275-.7-.243-1.43-.425-2.129-.03-.122-.183-.669.031-.73.213-.03.182.3.213.425a8.071,8.071,0,0,0,.456,1.46,7.289,7.289,0,0,1,.608,2.251v.943c0,.092-.031.3.03.365.092.121.639,0,.761-.031a4.865,4.865,0,0,0,2.159-1.186,12.484,12.484,0,0,0,1.368-1.49m2.068-2.007c-.152-.152-.213-.244,0-.335v.335m-.182-.183-.061.061m-5.262,1c.213-.122.425.213.244.335-.214.153-.426-.213-.244-.335m3.528.882-.031.031m-.03.152.213.213m1.308,1.125a1.914,1.914,0,0,1,.4-.73c.03-.061.243-.182.243-.03a1.536,1.536,0,0,1-.516.973c-.183.122-.183-.121-.122-.213l.182.183m.244-.913.183.183m-7.635.608c.122-.183.274-.7.517-.76s.274.213.3.4a4.7,4.7,0,0,1,.03,1.46c-.122.335-.547.486-.608.882-.061.274-.213.73-.03.912m-.426-3.011.183.214m-.213-.153.182.213m-.213-.152.183.213m-.213-.152.183.213m-.214-.152.183.213m-.213-.152.183.213m-.214-.152.183.213m-.183-.183c-.152.213-.152.335.031.517m6.965-.183c.153-.061.183.122.153.213a3.445,3.445,0,0,1-.456.639,7.278,7.278,0,0,1-2.646,2.159,2.638,2.638,0,0,1-.943.3.158.158,0,0,1-.061-.3,8.662,8.662,0,0,1,.943-.3,6.368,6.368,0,0,0,1.582-1.1,7.9,7.9,0,0,0,.973-1.065c.122-.152.275-.455.456-.547m-7.177.031.182.213m6.966-.213.183.182m-7.33-.152c-.244.3-.365.7-.639,1a9.179,9.179,0,0,1-2.616,1.46,6.93,6.93,0,0,1-1.095.456c-.244.03-.153-.425-.365-.335-.152.091-.183.517-.274.669a2.829,2.829,0,0,1-1.065,1.095.935.935,0,0,1-.639.122c-.243-.091-.335-.4-.577-.183m18.219-3.588.03.03-.03-.03m1.612.03a9.281,9.281,0,0,0,3.772,2.129m-14.63-2.1v.152m9.247-.152c-.061.213.091.395,0,.608a1.114,1.114,0,0,1-.486.425,3.593,3.593,0,0,1-1.643.608v.031l.213.213a1.221,1.221,0,0,0-.669.365c-.061.092-.152.183-.091.3.122.152.425.061.608.061.456.061.852.3,1.277.365.852.153,1.643-.547,2.494-.456.487.061.73.4,1.125.639.335.183.852.213.852.7,0,.761-1.277.4-1.764.487a32.185,32.185,0,0,0-4.411,1.4c-.335.122-.7.243-1.034.335-.122.03-.3.061-.365.213a1.9,1.9,0,0,0,.3,1.065,3.173,3.173,0,0,0,2.616,1.885,12.3,12.3,0,0,0,4.441-.638,9.118,9.118,0,0,0,2.767-1.247,3.88,3.88,0,0,0,.791-.791,1.978,1.978,0,0,0,.335-.669c.4-1.582-.882-2.586-2.251-3.042-1.125-.365-2.311-.425-3.436-.73a2.382,2.382,0,0,1-1.065-.638c-.122-.122-.3-.456-.456-.486-.183,0-.456.274-.608.365a4.207,4.207,0,0,1-1.46.517m-.244-.274a2.465,2.465,0,0,1,.4-.913,1.609,1.609,0,0,1,.456-.183,3.874,3.874,0,0,1,1.247-.456M192.9,138.89c-.183-.061-.365-.031-.517-.122a.357.357,0,0,1-.122-.517,3.229,3.229,0,0,1,.913-.456,3.479,3.479,0,0,1,2.22-.152m23.359,0a2.973,2.973,0,0,1,2.434.3c.244.121.852.335.608.729-.152.214-.486.092-.7.214.213.425.79.425,1.155.669.243.152.152.577,0,.791a1.46,1.46,0,0,1-.3.3c-.3-.335.031-.76.426-.76m-3.833-2.342-.03.091m-.092-.03h.061m-23.054.06-.061.214m.152-.153.061.061m23.055-.061-.122.122m.091.031c.426.121.943-.153,1.4-.092a4.331,4.331,0,0,1,1.1.426c.121.091.182.243.335.274m-19.892-.365c-.121.153-.091.213.031.365m19.527-.274-.275.182-.365.061.061.274.547.7m-28.469-.943.274-.244.244.183m28.042-.183-.243.183m-19.557-.152a3.557,3.557,0,0,1-1.582.577c-.76.152-1.521.335-2.281.426m-2.251-.73-.152-.153v-.03l.03-.031c.213,0,.213.122.092.275-.3-.3-.639.03-.944.243-.091.061-.365.183-.3.365.03.152.4-.061.456-.122.091-.061.213-.122.3-.183a3.931,3.931,0,0,0,.456-.3m23.6-.244a2.076,2.076,0,0,1,1.307.821c-.335.152-1.155-.456-1.246-.76m-26.1,0,.274.03m26.1-.03-.183.183m2.342-.183-.274.03m-1.825,0-.213.213m-1.46.4c.152-.061.152-.365.335-.3.152.061.243.486.3.638.274.487.943,1.338,1.612,1.217.122-.031.578-.4.4-.548s-.486.3-.73.122c-.091-.061-.121-.213,0-.243.487-.244,1.035-.335,1.521-.578M193.871,140.9a5.913,5.913,0,0,0,.729,0c.061-.031.183-.061.244.03.091.152-.244.578-.244.791a2.81,2.81,0,0,0,.609,2.129,6.525,6.525,0,0,0,4.106,1.734,7.568,7.568,0,0,0,1.43.152c.274-.03.516-.425.76-.547a9.462,9.462,0,0,0,3.285-2.038,3.99,3.99,0,0,0,.73-1.034c.031-.091.152-.365,0-.425-.213-.092-.4.516-.486.638a5.642,5.642,0,0,1-1.795,1.7,7.755,7.755,0,0,1-3.437,1.277,6.4,6.4,0,0,1-3.832-1.155,3.054,3.054,0,0,1-1.035-1.369,2.3,2.3,0,0,1,.883-2.4,8.432,8.432,0,0,1,3.649-1.155,8.7,8.7,0,0,1,1.491-.335c.213,0,.4.274.547.4a3.083,3.083,0,0,0,1.125.669m-9.489-1,.03.03m24.028-.03-.213.213m2.981-.153-.183.183m-26.552-.091c-.061.061-.213.213-.183.335.061.091.3,0,.4.061.091.03.122.122.213.183a1.036,1.036,0,0,0,.3,0,1.976,1.976,0,0,1,.365.182c.092.031.365.031.4.183,0,.152-.182.213-.274.183-.183,0-.608-.365-.577.03m3.193-1,.183-.152.122.213m19.466-.213-.213.213m.3-.183-.183.213m-7.573.031c-.122.183-.031.274.152.183m7.938-.153.578.275m-25-.153v.061l.152-.122m-.182.122c-.061.031-.214,0-.275.092-.152.152.031.638.183.79.183.214.183-.121.183-.243l-.061-.213c-.03-.122-.061-.214-.091-.335m16.332-.092-.943.852.244.274c-.152.061-.425.03-.547.183-.122.091-.153.3-.183.456-.091.3-.213.608-.335.912-.061.122-.4.639-.213.7.152.061.365-.061.486-.092.425-.121.821-.243,1.247-.365,1.49-.486,2.98-1.065,4.5-1.46a6.71,6.71,0,0,1,1.338-.152c.153,0,.426.122.578-.031.122-.122,0-.274-.122-.365a4.578,4.578,0,0,1-.577-.213c-.3-.183-.517-.517-.883-.548-.851-.03-1.581.456-2.433.426-.578,0-1.186-.517-1.765-.335-.486.122-.577.76-1.095.882m13.139-1.034c.213.06-.061.882-.274.79-.183-.091.061-.882.274-.79m-20.8.395a2.1,2.1,0,0,1-.76-.152c-.153-.061-.031-.213.091-.243.669-.092,1.46.486,2.068.152m18.7.061c.122.03.061.182.061.243-.03.183-.152.517-.365.487-.183,0,.091-.761.3-.73m-27.617.274c-.06-.213.031-.3.214-.183m-1.4-.03c.122.243.3.455.091.669m8.425-.548c-.243.275-.669.183-.973.365-.213.152-.061.335.152.274.7-.122,1.369-.425,2.1-.486a16.394,16.394,0,0,1,3.863.274,10.391,10.391,0,0,0,1.369.122c.091,0,.4-.061.425.061a1.019,1.019,0,0,1-.061.425,7.065,7.065,0,0,1-.425,1.125,5.25,5.25,0,0,1-3.863,3.072,7.119,7.119,0,0,1-1.125.152c-.243.031-.517.091-.7-.061m-9.216-5.292-.244.244m1.795-.061.213-.153m0,.031-.183.183m-1.49-.031-.03.213m-.092-.061-.091-.091.122.122m29.745-.122.122.122v-.061m-1.46-.031.183.183m-12.592-.152h.061m13.748.061.031.03m.03,0,.061.061m-.091.061a2.7,2.7,0,0,1-1.46.3,1.351,1.351,0,0,1-.335-.092c-.244,0-.486.061-.73.061l-.03.031a3.577,3.577,0,0,1,.3,1.246,3.109,3.109,0,0,1-1.551,2.4,13.013,13.013,0,0,1-5.171,1.734,5.9,5.9,0,0,1-2.068.061,10.3,10.3,0,0,1-1.642-.516c-.244-.092-.517-.031-.73-.183-.183.122-.365.061-.578.061a14.954,14.954,0,0,1-1.642-.153,12.715,12.715,0,0,0-1.886-.182c-.365.03-.73.152-1.095.213a15.855,15.855,0,0,1-2.4.091m-7.178-5.048.092.152m1.034.3.183.183m15.42,1.46-.183.183c-.091-.183,0-.274.183-.183m0,.03c.183.214.3.426.517.639a4.466,4.466,0,0,0,2.8,1.035c.365,0,.7.03,1.065.03.091,0,.3-.03.3.091.031.153-.213.183-.3.183a7.337,7.337,0,0,1-1.156.031,5.455,5.455,0,0,1-2.706-1,1.906,1.906,0,0,1-.7-.852m-1.216.152c.183-.091.456.578.547.7a3.6,3.6,0,0,0,1.977,1.125c.091.031.517.153.3.3-.182.122-.547-.031-.73-.091A3.906,3.906,0,0,1,209.353,144c-.092-.122-.578-.73-.3-.882m-1.916,2.555.213-.213-.03-.03a11.221,11.221,0,0,1-1.734-.183c-.122-.031-.486,0-.547-.152-.061-.183.486-.456.608-.548.608-.516,1-1.338,1.885-1.307.213,0,.244.365.274.517a4.568,4.568,0,0,0,.548,1.246c.152.213.335.365.152.608a.349.349,0,0,0-.547.122m-6.935-.3h.061m6.265.03h.3l-.122.244m.152-.213h.365m.456.121v.092" transform="translate(-191.645 -116.11)" fill="none" stroke="#fff" stroke-width="0.5"/>
          </g>
        </g>
      </g>
    </g>
  </g>
</svg>
