<svg xmlns="http://www.w3.org/2000/svg" width="42.425" height="43.434" viewBox="0 0 42.425 43.434">
  <g id="Group_20" data-name="Group 20" transform="translate(-1098.593 -199.449)">
    <g id="Group_19" data-name="Group 19" transform="translate(1099 200)">
      <g id="Group_10" data-name="Group 10" transform="translate(0)">
        <g id="Group_9" data-name="Group 9" transform="translate(0 0)">
          <g id="FreeSample-Vectorizer-io-image_17c33502-9ee4-4e13-ad72-97aa343ea7ad" transform="translate(0)">
            <g id="Group_3" data-name="Group 3" transform="translate(3.831 39.261)">
              <path id="Path_3" data-name="Path 3" d="M253.574,435.275a3.127,3.127,0,0,1,1.234.081,23.175,23.175,0,0,1,2.923.535c.288.082,1.316.372.988.824-.289.453-1.195.576-1.688.658a34.408,34.408,0,0,1-5.022.7,151.792,151.792,0,0,1-20.744.123,44.154,44.154,0,0,1-6.586-.782,6.45,6.45,0,0,1-1.523-.453c-.165-.082-.412-.206-.37-.453.041-.165.246-.288.411-.37a12.942,12.942,0,0,1,1.358-.37,9.28,9.28,0,0,1,2.593-.288c1.111.082,2.181.411,3.292.493a20.125,20.125,0,0,0,3.869,0,16.114,16.114,0,0,1,2.47-.328c1.152.082,2.346.288,3.5.411.742.082,1.523,0,2.264.124a11.08,11.08,0,0,1,1.235.493,6.524,6.524,0,0,0,2.511.37,19.61,19.61,0,0,0,5.31-1.07c.658-.205,1.316-.535,1.976-.7" transform="translate(-222.782 -435.23)" fill="none" stroke="#1e3d2a" stroke-width="0.8"/>
            </g>
            <g id="Group_4" data-name="Group 4" transform="translate(9.55 4.937)">
              <path id="Path_4" data-name="Path 4" d="M275.407,156.24a6.3,6.3,0,0,0-.453,1.729,3.124,3.124,0,0,1,0,1.07c-.082.123-.412.205-.535.288a8.845,8.845,0,0,0-.905.865,7.874,7.874,0,0,0-1.77,3.622,6.942,6.942,0,0,0,.082,2.757,7.239,7.239,0,0,1,.412,1.235c0,.247-.288.412-.453.576a3.644,3.644,0,0,0-.741,1.03c-.082.123-.165.453-.372.411s-.453-.781-.534-.988a8.508,8.508,0,0,1-.865-3.334,11.989,11.989,0,0,1,.082-2.1,9.786,9.786,0,0,1,3.375-5.68,4.549,4.549,0,0,1,2.634-1.441m10.5.042c.205-.165.7.205.905.288a12.026,12.026,0,0,1,2.387,1.934,9.469,9.469,0,0,1,2.346,8.6,8.382,8.382,0,0,1-.7,1.934c-.081.165-.205.535-.37.618-.205.082-.328-.205-.37-.33a6.761,6.761,0,0,0-.823-1.07c-.165-.123-.453-.288-.453-.493-.041-.247.205-.618.247-.865a7.878,7.878,0,0,0,.288-1.975,7.366,7.366,0,0,0-1.606-4.487,11.642,11.642,0,0,0-.988-1.03,2.258,2.258,0,0,1-.576-.493c-.165-.205-.082-.576-.082-.823a4.1,4.1,0,0,0-.205-1.235c-.042-.123-.165-.453,0-.576" transform="translate(-269.268 -156.24)" fill="none" stroke="#f8a346" stroke-width="0.669"/>
              <g id="Group_8" data-name="Group 8" transform="translate(9.09 2.207)">
                <path id="Path_8" data-name="Path 8" d="M346.029,174.889a14.942,14.942,0,0,1,2.127-.173,16.117,16.117,0,0,1,2.176.173" transform="translate(-346.029 -174.716)" fill="none" stroke="#fbcb07" stroke-width="0.5"/>
                <path id="Path_9" data-name="Path 9" d="M346.029,174.889a14.942,14.942,0,0,1,2.127-.173,16.117,16.117,0,0,1,2.176.173" transform="translate(-346.029 -174.101)" fill="none" stroke="#fbcb07" stroke-width="0.5"/>
                <path id="Path_10" data-name="Path 10" d="M346.029,174.889a14.942,14.942,0,0,1,2.127-.173,16.117,16.117,0,0,1,2.176.173" transform="translate(-346.029 -173.486)" fill="none" stroke="#fbcb07" stroke-width="0.5"/>
              </g>
            </g>
            <g id="Group_5" data-name="Group 5" transform="translate(7.135 1.844)">
              <path id="Path_5" data-name="Path 5" d="M260.21,132.09c-.205.576-.781.905-1.193,1.276a4.594,4.594,0,0,1-.823.741c-.37.205-.782.247-1.153.453a10.714,10.714,0,0,0-3.252,2.964,9.5,9.5,0,0,0-1.564,7.409,11.256,11.256,0,0,0,.781,2.058,3.334,3.334,0,0,1,.412.988,4.756,4.756,0,0,1-.288,1.481,3.018,3.018,0,0,1-.33,1.029c-.123.124-.288-.081-.37-.164a5.692,5.692,0,0,1-.741-.988,10.987,10.987,0,0,1-1.935-4.569,12.147,12.147,0,0,1,6.751-12.431,8.952,8.952,0,0,1,3.787-1.234m13.584,19.427a6.453,6.453,0,0,1-.577-1.976,1.919,1.919,0,0,1-.123-.7,4.491,4.491,0,0,1,.493-.988,9.009,9.009,0,0,0,.495-1.358,8.775,8.775,0,0,0,.328-3.58,10.073,10.073,0,0,0-4.115-6.833,9.547,9.547,0,0,0-1.4-.823c-.164-.042-.411.041-.576-.082-.37-.247-.658-.7-1.028-.988a6.316,6.316,0,0,1-.7-.782c-.165-.165-.37-.288-.412-.535,0-.164-.082-.576.042-.7.082-.124.288-.082.411-.082a5.713,5.713,0,0,1,1.112.328,15.7,15.7,0,0,1,4.157,2.058,11.413,11.413,0,0,1,2.8,16.093,3.986,3.986,0,0,1-.906.947" transform="translate(-249.64 -131.095)" fill="none" stroke="#fbcb04" stroke-width="1"/>
            </g>
            <g id="Group_6" data-name="Group 6" transform="translate(11.943 7.802)">
              <path id="Path_6" data-name="Path 6" d="M303.167,179.542c.165-.082.412.165.535.247a10,10,0,0,1,1.112,1.193,7.21,7.21,0,0,1,1.481,5.433,12.554,12.554,0,0,1-.288,1.318c-.082.123-.123.37-.288.411-.165.082-.33-.123-.453-.205a6.642,6.642,0,0,0-.905-.535c-.165-.082-.37-.123-.453-.288-.082-.207.246-.495.328-.659a2.183,2.183,0,0,0,.124-1.152c-.165-.906-.865-1.482-1.153-2.306-.165-.535.165-1.111-.042-1.688-.081-.205-.328-.288-.37-.493a2.021,2.021,0,0,1,.37-1.276m-11.442.082c.411-.165.576.618.618.906.123.411-.289.493-.372.823a8.535,8.535,0,0,0,0,1.441c.042.411-.328.823-.534,1.153a3.611,3.611,0,0,0-.659,1.893,1.864,1.864,0,0,0,.33.946c.082.123.288.33.205.495-.082.123-.328.205-.453.288a7.449,7.449,0,0,1-1.276.658c-.33.082-.412-.33-.493-.576a6.27,6.27,0,0,1-.372-2.1,7.491,7.491,0,0,1,1.647-4.692,3.556,3.556,0,0,1,1.358-1.234" transform="translate(-288.72 -179.525)" fill="none" stroke="#f58439" stroke-width="1"/>
            </g>
            <g id="Group_7" data-name="Group 7">
              <path id="Path_7" data-name="Path 7" d="M213.8,116.355a.827.827,0,0,1-.288.247,2.729,2.729,0,0,1-.576,0c-.495,0-1.111.164-1.4-.33.988-.37,2.881-.123,3.458.905.082.165-.082.247-.124.412-.041.123.082.288.165.411.247-.247.247-.37.042-.658m.205.453a2.737,2.737,0,0,1-.37.864c-.33.042-.865-.246-1.193-.288a7.6,7.6,0,0,0-2.553.042c-.246.041-1.028.411-1.234.246-.247-.164,0-.658.041-.864,0-.165-.165-.247-.165-.412a1.818,1.818,0,0,1,1.318-.988c.165.042.247.207.411.247l.042-.041-.247-.289.205-.041m-.329.082.123-.042m2.593.082-.33.289m-2.016-.082h.123m2.634,0c-.246.246-.37.246-.658.082m-3.663.988a3.214,3.214,0,0,1,1.358-.988m2.716.205.741.7m.165-.412-.247.247m-4.98.041c-.37.453-.205.988-.412,1.482a2.85,2.85,0,0,1-.988,1.111l.207.247-.33.288-.247-.205.33-.33m1.4-2.511.247.247m5.392.165c.041.288.082.493-.288.493m-.082-.411v.041m.411.412c0,.658.7,1.193,1.153,1.6-.37.495.495.495.041,0m-4.856-1.4a6.651,6.651,0,0,1,2.84.288,2.692,2.692,0,0,1,.947.535c.246.37,0,.906-.207,1.235a3.428,3.428,0,0,1-2.429,1.441,3.581,3.581,0,0,1-3.127-1.195,1.33,1.33,0,0,1-.288-1.522c.411-.577,1.6-.659,2.264-.782m3.827.618.042.041-.042-.041m-7.038.658a8.3,8.3,0,0,1,.865,1.235c.123.123.37.328.37.535-.042.164-.288.246-.412.288a2.7,2.7,0,0,0-.781.741,6.8,6.8,0,0,0-.742,2.346m.742-5.022.164.165m-.493-.082.123.042m8.026,0,.042.041m-8.274,0,.165.207m8.972,4.4.288.288.042-.041c.082-.493.288-.7-.082-1.111-.082.205-.082.864-.37.864-.205,0-.165-.37-.205-.493a3.859,3.859,0,0,0-.453-1.523,2.6,2.6,0,0,0-.947-.823c-.123-.082-.37-.165-.37-.33,0-.328.493-.7.618-.988.082-.123.082-.288.205-.37s.247,0,.33,0m-7.944-.041.082.082m8.149-.042.493.495-.041.041-.453-.535m-9.014.7-.041-.205.411-.453m.124.041.041.042m.082.164-.247.247-.123-.082-.042-.041-.041-.042-.042-.041m.124.041.041.042m9.179-.042.33.247-.247.247v.041l.247-.247m-9.8-.164.247.246-.082.082-.042.042-.081-.082m9.3-.288.082.205.246-.165m-9.3.042-.123.123m-.412,0,.247.288-.041.042-.042.041-.247-.205-.041.041c.288.412.041.782-.042,1.276a4.852,4.852,0,0,0,.124,1.729c.082.289.123.659.411.782m-.37-3.952-.082.082m10.085-.082-.165.33v.041l.247-.246m-.453-.082.082.123m-9.673,0,.041.042m.205-.042-.041.042m9.508,0,.082.164m-10-.123.247.288m10.085-.246-.288.164m-10.044-.164.207.37m10.166-.33-.288.288.042.042.246-.289m-10.043,0-.041.042m-.37.041.246.289m-.246-.247.205.37m9.96-.33.042.042m.328-.042-.288.33v.041l.042.042.288-.288m-10.62-.042.205.37m10.044-.246.082.081m-10.455-.041a7.97,7.97,0,0,0-.124,1.976,6.828,6.828,0,0,1,.33,1.235c0,.453-.658.576-.288,1.111.123-.123.205-.288.328-.412.165-.164.412,0,.495.207a2.731,2.731,0,0,1,0,1.152c-.042.124-.082.495-.288.412-.124-.042-.124-.247-.165-.37-.123-.33-.123-.658-.37-.905l-.124,1.153-.37.7.207.33-.042.041-.041.042-.247-.205-.041.041v.042l.246.246-.041.042-.042.041-.246-.205-.042.041v.042c.124.123.205.205.124.411l-.247-.205-.042.042v.041a.749.749,0,0,1,.207.288c0,.165-.124.288-.165.453-.082.453.123.782-.247,1.153a1.549,1.549,0,0,1,.042-1.523l.123.123.041.042.042.041.041.042m11.731-7.656-.288.37-.041-.041v-.165m-1.935,0c-.37.37-.618.082-1.07.123a7.608,7.608,0,0,1-2.139.453c-.947-.082-1.976-.741-2.841-.205-1.564,1.029-1.481,3.581-.741,5.063.205.412.618,1.276,1.111,1.4.165.041.288-.082.412-.207a5.287,5.287,0,0,1,.823-.453,1.509,1.509,0,0,1,.741,0c.205.042.37.207.618.207.453,0,.741-.33,1.276-.207a2.353,2.353,0,0,1,.906.453c.123.124.288.288.453.165a2.613,2.613,0,0,0,.947-1.153,5.311,5.311,0,0,0,.246-4.4,3.083,3.083,0,0,0-.988-.947m2.553-.288a4.506,4.506,0,0,1-.042,2.222m-2.181-2.181-.288.288m2.181-.123v1.77m-5.186-.33c.453-.205.7.576.288.782-.453.205-.782-.618-.288-.782m5.145.495.288.288m-.288-.082.246.247m-.288-.082.247.246m-.288-.123.246.247m-.328-.165.288.288m-.453-.123.33.328-.042.042-.288-.288m-3.952.411.205.207v.041c-.288.123-.411-.082-.164-.288a1.79,1.79,0,0,1,1.029-.33,3.137,3.137,0,0,1,1.235.205c.288.124.329.372-.042.372l.205-.33m-6.421,0a3.115,3.115,0,0,1,1.935-.124c.123,0,.823.247.535.495-.124.123-.577-.123-.742-.165a3.889,3.889,0,0,0-1.193.042c-.123.041-.453.164-.576.082s-.042-.247,0-.33l.288.288m8.026-.33c.453.165.535.412.205.742-.165-.37-.576-.33-.658.082a2.165,2.165,0,0,0,.123,1.439c.207.289.37-.288.37-.411a1.724,1.724,0,0,0,.082-.453,3.539,3.539,0,0,0,.082-.658m-6.009-.577-.247.247m1.934,0a4.78,4.78,0,0,1,2.018-.082m-2.593,1.235a.913.913,0,0,0-.123.658.15.15,0,0,0,.288,0c.123-.288-.042-.493-.124-.741a1.539,1.539,0,0,1-.041-.618c0-.247-.082-.412.205-.493m.042.081-.207.207m5.187-.124v1.647l.658,1.111.288.576-.205.535v.947l.165.411-.33.37a3.143,3.143,0,0,0,1.07.659,11.092,11.092,0,0,1,1.564,1.193c.33.328.742.741.372,1.111a6.585,6.585,0,0,0-1.03-1.111c-.123-.124-.328-.33-.535-.247-.165.042-.205.33-.246.453-.207.495-.372.988-.535,1.482-.7,2.057-1.07,4.238-1.565,6.338-.205.823-.411,1.606-.618,2.429-.041.164-.288.658-.164.823.082.123.328,0,.411-.042.288-.123.947-.288,1.03-.618.123-.576-.124-1.316-.042-1.934a26.194,26.194,0,0,1,1.153-3.457c.123-.453.205-.865.288-1.318.042-.123.082-.37.288-.288.247.082.082.658.042.823a10.931,10.931,0,0,1-.453,1.646c-.082.289-.33.618-.289.905a2.884,2.884,0,0,0,.33.823c.247.495.495,1.03.741,1.523a9.215,9.215,0,0,1,.7,1.441c.082.207-.205.33-.082.535a2.629,2.629,0,0,0,.865.783,13.583,13.583,0,0,0,2.139,1.193c.535.247,1.112.453,1.647.7.165.082.328.328.493.328.124,0,.33-.288.412-.37-.412-.164-.495.453-.865.412a16.178,16.178,0,0,1-1.934-.412,7.933,7.933,0,0,1-3.252-.864,2.668,2.668,0,0,1-.947-1.193,4.724,4.724,0,0,0-.165-.742c-.123-.246-.37-.411-.493-.616a1.66,1.66,0,0,1-.205-.988,5.432,5.432,0,0,1,.082-1.153c.041-.165.081-.37.288-.37.288.041.493.576.576.781A19.081,19.081,0,0,0,221,144.426M209.969,126.11l.042.041-.247.289-.042-.042-.082-.205.33-.082m4.98.041c.288-.081.37.042.207.289l-.247-.289h-.042l-.041.042.288.247m-5.1-.289c.164.042.576.082.616.289.042.37-.7.082-.823,0m1.318.123-.247-.247c.123-.082.618-.328.618,0-.041.288-.618.33-.823.247m-3.7-.37v.082m6.956-.082.041.041-.288.289c-.247-.247,0-.33.247-.33m.041.041c.165,0,.7.207.33.37a.725.725,0,0,1-.576-.081m.741.123.328-.042.042-.041-.205-.288.041-.042.37.247m-4.363-.123.205-.082m3.54.041.207-.041m.205.288.123-.041m-5.1,3.045c.453-.165.7-.7,1.152-.864.535-.165.947.123,1.441.165.412,0,.7-.33,1.112-.289.906.124,1.729,1.276,2.3,1.893a.536.536,0,0,0,.865-.205c.041-.165-.165-.247-.288-.247-.33-.041-.988-.246-1.07-.658-.042-.165.165-.33.288-.412a5.32,5.32,0,0,0,.741-.946c.042-.123.165-.37.33-.288.123.082.165.37.205.493.124.495.288.988.412,1.483a5.012,5.012,0,0,1,0,3.7c-.124.288-.453-.124-.577.123a6.823,6.823,0,0,0-.082.905,4.729,4.729,0,0,1-.616,1.481c-.124.165-.207.453-.372.577-.288.205-.493-.658-.741-.33-.205.288-.205.823-.37,1.153a7.586,7.586,0,0,1-1.4,1.646c-.165.165-.618.741-.905.659-.247-.042-.124-.659-.289-.865-.123-.123-.328-.082-.493-.165a3.341,3.341,0,0,1-.741-.782,5.61,5.61,0,0,1-.577-.987c-.082-.165-.082-.454-.164-.618-.247-.37-.412.535-.7.328a1.467,1.467,0,0,1-.33-.493,4.676,4.676,0,0,1-.7-1.441,7.487,7.487,0,0,0-.041-.988c-.123-.33-.412.123-.576-.042a2.855,2.855,0,0,1-.372-1.646,10.263,10.263,0,0,1,.577-3.169c.041-.205.123-.905.328-.988.247-.082.412.247.495.412a11.483,11.483,0,0,0,1.07,1.4l.165-.165-.042-.041-.37.37.247-.165m-3.169-1.606.246.247-.081.082v.042l-.042.041-.041.042m11.812,2.963-.164.082.328-.328c-.082.205-.535.288-.618,0-.123-.412-.123-.824-.205-1.235a5.674,5.674,0,0,1-.328-1.193c0-.207.123-.782.411-.618a2,2,0,0,1,.495.658c.123.247.246.453.37.7m-11.938-1.276c.33-.207.577.205.577.535a10.64,10.64,0,0,1-.495,1.893c0,.164,0,.576-.164.658-.207.205-.618-.453-.659-.618m.412-2.552.247.247m-.33-.124-.082.082m.123.082.042.042m-.205,0-.082.081m.123.082.041.042m.207-.042-.042.042m-.411.041.246.288m-.246-.246-.082.082m.411,0-.041.041m-.247.042.042.041m-.247.041.247.289m-.289-.207.247.33m.124-.288-.042.041m-.37.042.247.288m-.288-.205v.041m6.379.288-.123-.041c.411-.535.781-.042,1.193.247.576.411,1.729.946,2.387.576m3.376-1.111a1.677,1.677,0,0,1,0,1.646m-4.157-1.4.37-.164m-9.467.081.247.247m6.091,0h-.205l.041-.082.042-.041h.082m.864,0c-.205.205-.823.165-.864.493-.042.165.453.535.618.577.246,0,.493-.207.781-.165.33.041.618.247.947.288a3.992,3.992,0,0,0,1.4.041l-.205-.37m-3.457-.164c-.288.328-.495.123-.865.246a4.23,4.23,0,0,1-2.141.288c-.246-.081-.988-.205-.946-.576.041-.165.205-.165.33-.165a11,11,0,0,0,1.028-.453m2.306.247-.124-.041.042-.082.041-.042h.082m.33,0,.082.082m3.252-.082-.289.288m-5.6-.246c-.082.205-.37.411-.328.616s.493.124.618.124a9.2,9.2,0,0,0,1.769-.658m.288-.082.042.082m-.124,0,.042.041m.7,0c.288.37-.33.741-.7.741m-.082-.658.123.123m3.829.7h.082m2.757,0-.205.453M206.1,130.76l-.123.042m-.165,0,.123.082m.247,0-.123.041m12.636-.041.246.247m-13.088-.165.164.041m-.041.124c.082.123.288.328.205.493-.041.165-.288.247-.411.288-.372.207-.782.412-1.153.618-.33.247-.865.412-.495.823a9.449,9.449,0,0,1,1.853-1.07c.205-.123.535-.328.741-.205.123.042.123.205.165.33a3.51,3.51,0,0,0,.247.946c.164.412.493.7.658,1.07a5.346,5.346,0,0,1,.247.741c.205.453.493.865.741,1.318.205.33.493,1.316.905.658.288.124.411.412.576.658a11.435,11.435,0,0,1,.865,1.112c.082.165.082.411.165.576.123.165.328,0,.453.124s0,.411.123.576c.123.123.37.165.535.288h.041l.082-.288-.328.041m6.421-8.849h.041m.33.289a.99.99,0,0,1-.33.246c-.165.042-.37-.082-.493.082-.33.453-.247,1.276-.535,1.811-.123.207-.37.37-.453.577-.247.493-.412,1.069-.618,1.564a34.259,34.259,0,0,1-4.117,7.286,10.409,10.409,0,0,1-2.387,2.264c-.123.123-.905.658-.988.37-.082-.205.205-.37.33-.453a8.4,8.4,0,0,0,1.441-1.03,17.511,17.511,0,0,0,3.54-4.938c.247-.495,1.028-1.4.576-1.853h-.041c-.37.535-.823.947-1.153,1.483-.288.411-.493.864-.741,1.276a12.453,12.453,0,0,1-3.457,3.417,6.475,6.475,0,0,1-2.306.823c-.37.041-.946-.289-1.235-.042a.771.771,0,0,0,.042,1.235c.123.082.493.165.493.37-.041.205-.328.123-.453.082-.453-.123-.658-.205-1.029.165-.082.082-.205.205-.205.328,0,.165.205.33.328.412.37.288.782.535,1.193.823a4.065,4.065,0,0,0,1.976.412c.865.123,1.77.246,2.634.37a4.8,4.8,0,0,0,2.018.082c1.4-.37,2.387-1.893,2.922-3.129,1.235-2.881,1.688-6.051,2.47-9.1a23.6,23.6,0,0,1,.905-2.922c.123-.288.453-.865.288-1.193-.082-.247-.577-.165-.782-.37l-.041.041a7.257,7.257,0,0,1-.659,2.016q-.74,1.976-1.6,3.952c-.165.412-.372.865-.577,1.276-.041.165-.205.37-.165.535,0,.124.124.247.207.33-.247.123-.37,0-.247-.247m3.334-8.314-.33.247m.042.082.041.041m.906-.041-.288.288m-.33.082a10.512,10.512,0,0,1-.905,2.634c-.411,1.153-.864,2.3-1.358,3.417a7.866,7.866,0,0,1-.864,1.769m-12.143-7.161a2.948,2.948,0,0,0-.864,1.153c-.042.205.164.288.164.493a10.142,10.142,0,0,1-.288,1.07c-.328,1.153-.658,2.346-.946,3.5a15.129,15.129,0,0,0-.577,2.264c-.041.535.37.37.742.493.123.042.411.165.288.372-.124.123-.495,0-.659,0a2.368,2.368,0,0,0-1.4.246,12.453,12.453,0,0,0-2.429,1.976,5.919,5.919,0,0,1-1.07.947c-.37.123-.906-.124-1.276-.124a4.239,4.239,0,0,0-2.1.577v.041c.082.082.205.205.328.205s.372-.123.495.042c.165.205-.205.741-.412.781-.164.042-.288-.123-.411-.205a2.534,2.534,0,0,1-1.03.823c-.288.124-.534-.041-.7.33a1.047,1.047,0,0,0,.37,1.07,2.909,2.909,0,0,0,1.729.576,1.39,1.39,0,0,0,.823,0c-.041-.082-.165-.165-.165-.288-.082-.205-.082-.823-.411-.865-.207-.041-.247.207-.207.33a.9.9,0,0,0,.495.535m8.849-14.818a4.146,4.146,0,0,1,.906-1.193m-.823.37.247.247m-.33-.124.247.247m18.522.082-.288.165m.328-.082-.288.165m.33-.082-.289.164m-18.81-.164.205.37m18.934-.33-.288.288.041.042.247-.288m-19.222.081.247.289m-.247-.247.207.37m18.727-.33.041.042m.33-.042-.288.33.041.041.288-.246m-19.386-.042.205.37m-.247-.246.207.37m18.85-.37.082.082m.288-.082a6.366,6.366,0,0,1,.577,1.769c.33,1.193.658,2.388.946,3.581a7.82,7.82,0,0,0,.37,1.688c.082.164.33.246.495.328a6.663,6.663,0,0,1,.906.577c.988.741,1.77,1.811,2.8,2.469l-.205.33a26.935,26.935,0,0,0-3.541-2.964,2.406,2.406,0,0,0-1.316-.205c-.123.041-.495.123-.576,0-.124-.207.164-.33.288-.372.453-.123.741.042.658-.576-.206-1.153-.576-2.264-.865-3.375a18.972,18.972,0,0,0-.823-3.006m-19.18-.123a7.593,7.593,0,0,0-.618,1.934c-.288,1.112-.618,2.223-.905,3.334a6.958,6.958,0,0,1-.37,1.605c-.205.37-.988.618-1.358.865a16.215,16.215,0,0,0-2.758,2.552l.124.123.041-.041.042-.042-.042-.041-.041.041-.042.124m.905,2.716a3.671,3.671,0,0,1,1.811-.618l.042-.041-.247-.247a5.123,5.123,0,0,1,1.358-.618,10.588,10.588,0,0,0,3.087-1.853,4.985,4.985,0,0,0,.823-1.439,3.454,3.454,0,0,0,.37-.905c.042-.165-.164-.289-.123-.454a6.187,6.187,0,0,1,.576-1.316c.372-.947-.328-1.935-.576-2.881-.041-.165-.247-.906.042-.988.288-.041.246.412.288.576a10.924,10.924,0,0,0,.618,1.976,9.864,9.864,0,0,1,.823,3.046v1.276c0,.124-.042.412.041.495.124.164.865,0,1.03-.042a6.584,6.584,0,0,0,2.922-1.606,16.9,16.9,0,0,0,1.852-2.016m2.8-2.716c-.205-.205-.288-.33,0-.453v.453m-.246-.247-.082.082m-7.121,1.358c.288-.165.576.288.33.453-.289.207-.577-.288-.33-.453m4.775,1.193-.042.042m-.041.205.288.288m1.77,1.523a2.59,2.59,0,0,1,.535-.988c.041-.082.328-.246.328-.041a2.078,2.078,0,0,1-.7,1.316c-.247.165-.247-.164-.165-.288l.246.247m.33-1.235.247.247m-10.332.823c.165-.247.37-.946.7-1.029s.37.288.412.535a6.362,6.362,0,0,1,.041,1.976c-.165.453-.741.658-.823,1.193-.082.37-.288.988-.041,1.234m-.577-4.075.247.289m-.288-.207.246.288m-.288-.205.247.288m-.288-.205.247.288m-.289-.205.247.288m-.288-.205.247.288m-.289-.205.247.288m-.247-.247c-.205.288-.205.453.042.7m9.425-.247c.207-.082.247.165.207.288a4.663,4.663,0,0,1-.618.865,9.849,9.849,0,0,1-3.581,2.922,3.57,3.57,0,0,1-1.276.412.214.214,0,0,1-.082-.412,11.724,11.724,0,0,1,1.276-.411,8.618,8.618,0,0,0,2.141-1.482,10.687,10.687,0,0,0,1.316-1.441c.165-.205.372-.616.618-.741m-9.713.042.246.288m9.426-.288.247.246m-9.92-.205c-.33.412-.495.947-.865,1.358a12.421,12.421,0,0,1-3.54,1.976,9.378,9.378,0,0,1-1.481.618c-.33.041-.207-.576-.495-.453-.205.123-.247.7-.37.905a3.828,3.828,0,0,1-1.441,1.481,1.265,1.265,0,0,1-.865.165c-.329-.123-.453-.535-.781-.247m24.655-4.856.041.041-.041-.041m2.181.041a12.56,12.56,0,0,0,5.1,2.881m-19.8-2.839v.205m12.513-.205c-.082.288.123.534,0,.823a1.507,1.507,0,0,1-.658.576,4.862,4.862,0,0,1-2.223.823v.042l.288.288a1.653,1.653,0,0,0-.906.493c-.082.124-.205.247-.123.412.165.205.576.082.823.082.618.082,1.153.411,1.729.493,1.153.207,2.223-.741,3.375-.618.659.082.988.535,1.523.865.453.247,1.153.288,1.153.946,0,1.03-1.729.535-2.387.659A43.556,43.556,0,0,0,215.689,152c-.453.165-.946.328-1.4.453-.165.041-.412.082-.495.288a2.565,2.565,0,0,0,.412,1.441,4.294,4.294,0,0,0,3.54,2.552,16.638,16.638,0,0,0,6.01-.864,12.339,12.339,0,0,0,3.745-1.688,5.252,5.252,0,0,0,1.07-1.07,2.676,2.676,0,0,0,.453-.905c.535-2.141-1.193-3.5-3.046-4.117-1.522-.493-3.127-.576-4.65-.988a3.223,3.223,0,0,1-1.441-.864c-.165-.165-.412-.618-.618-.658-.247,0-.618.37-.823.493a5.694,5.694,0,0,1-1.976.7m-.33-.37a3.336,3.336,0,0,1,.535-1.235,2.177,2.177,0,0,1,.618-.247,5.243,5.243,0,0,1,1.688-.618m-25.643,2.635c-.247-.082-.495-.042-.7-.165a.483.483,0,0,1-.165-.7,4.37,4.37,0,0,1,1.235-.618,4.707,4.707,0,0,1,3-.205m31.611,0a4.023,4.023,0,0,1,3.293.412c.33.164,1.153.453.823.987-.205.289-.658.124-.946.289.288.576,1.069.576,1.564.906.328.205.205.781,0,1.07a1.977,1.977,0,0,1-.412.411c-.411-.453.042-1.029.577-1.029m-5.187-3.169-.041.123m-.124-.041h.082m-31.2.081-.082.289m.205-.207.082.082m31.2-.082-.165.165m.123.042c.577.164,1.276-.207,1.893-.124a5.86,5.86,0,0,1,1.482.577c.164.123.246.328.453.37m-26.92-.495c-.164.207-.123.288.042.495m26.425-.37-.372.246-.493.082.082.37.741.947M192.928,146.4l.37-.33.33.247m37.949-.247-.328.247m-26.466-.205a4.814,4.814,0,0,1-2.141.781c-1.029.205-2.058.453-3.087.577m-3.046-.988-.205-.207v-.041l.041-.042c.288,0,.288.165.124.372-.412-.412-.865.041-1.277.328-.123.082-.493.247-.411.495.041.205.535-.082.618-.165.123-.082.288-.165.411-.247a5.324,5.324,0,0,0,.618-.411m31.941-.33a2.809,2.809,0,0,1,1.769,1.111c-.453.205-1.564-.618-1.687-1.029m-35.315,0,.37.041m35.315-.041-.247.247m3.169-.247-.37.041m-2.469,0-.288.288m-1.976.535c.205-.082.205-.493.453-.411.205.082.329.658.411.864.37.659,1.276,1.811,2.181,1.647.165-.042.782-.535.535-.742s-.658.412-.988.165c-.123-.082-.164-.288,0-.328.659-.33,1.4-.453,2.058-.782m-36.632,2.058a8,8,0,0,0,.987,0c.082-.042.247-.082.33.041.123.205-.33.782-.33,1.07a3.8,3.8,0,0,0,.824,2.881c1.358,1.564,3.58,2.058,5.556,2.346a10.24,10.24,0,0,0,1.935.205c.37-.041.7-.576,1.029-.741a12.8,12.8,0,0,0,4.445-2.758,5.4,5.4,0,0,0,.988-1.4c.042-.123.205-.493,0-.576-.288-.124-.535.7-.658.864a7.636,7.636,0,0,1-2.429,2.306,10.5,10.5,0,0,1-4.652,1.729,8.667,8.667,0,0,1-5.186-1.564,4.134,4.134,0,0,1-1.4-1.853,3.106,3.106,0,0,1,1.195-3.252c1.4-1.07,3.252-1.235,4.938-1.564a11.777,11.777,0,0,1,2.018-.453c.288,0,.535.37.741.535a4.172,4.172,0,0,0,1.523.905M193.67,147.02l.041.041m32.516-.041-.288.288m4.034-.207-.247.247m-35.933-.123c-.082.082-.288.288-.247.453.082.123.412,0,.535.082.123.041.165.165.288.247a1.4,1.4,0,0,0,.412,0,2.673,2.673,0,0,1,.493.246c.124.042.495.042.535.247,0,.205-.246.288-.37.247-.247,0-.823-.495-.781.041m4.321-1.358.247-.205.165.288m26.343-.288-.288.288m.411-.247-.247.288m-10.248.042c-.165.247-.042.37.205.247m10.743-.207.782.372m-33.834-.207v.082l.205-.165m-.246.165c-.082.042-.289,0-.372.124-.205.205.042.864.247,1.069.247.289.247-.164.247-.328l-.082-.288c-.041-.165-.082-.289-.123-.453m22.1-.124-1.276,1.153.33.37c-.205.082-.576.041-.741.247-.165.123-.207.411-.247.618-.123.411-.288.823-.453,1.234-.082.165-.535.865-.288.947.205.082.493-.082.658-.124.576-.164,1.111-.328,1.688-.493,2.016-.658,4.033-1.441,6.091-1.976a9.082,9.082,0,0,1,1.811-.205c.207,0,.577.165.782-.042.165-.165,0-.37-.165-.493a6.2,6.2,0,0,1-.781-.288c-.412-.247-.7-.7-1.195-.742-1.152-.041-2.139.618-3.292.577-.782,0-1.606-.7-2.388-.453-.658.165-.781,1.029-1.481,1.193m17.781-1.4c.288.081-.082,1.193-.37,1.069-.247-.123.082-1.193.37-1.069m-28.154.534a2.844,2.844,0,0,1-1.029-.205c-.207-.082-.042-.288.123-.328.906-.124,1.976.658,2.8.205m25.313.082c.165.041.082.246.082.328-.041.247-.205.7-.493.659-.247,0,.123-1.03.411-.988m-37.374.37c-.081-.288.042-.412.289-.247m-1.893-.041c.165.328.411.616.123.905m11.4-.742c-.329.372-.906.247-1.316.495-.288.205-.082.453.205.37.947-.165,1.853-.576,2.839-.658a22.186,22.186,0,0,1,5.227.37,14.063,14.063,0,0,0,1.853.165c.123,0,.535-.082.576.082a1.379,1.379,0,0,1-.082.576,9.559,9.559,0,0,1-.576,1.523,7.1,7.1,0,0,1-5.228,4.157,9.632,9.632,0,0,1-1.523.205c-.328.042-.7.123-.946-.082m-12.471-7.161-.33.33m2.429-.082.288-.207m0,.042-.247.247m-2.016-.042-.041.288m-.124-.082-.123-.123.165.165m40.254-.165.165.165v-.082m-1.976-.042.247.247m-17.041-.205h.082m18.6.082.042.041m.041,0,.082.082m-.123.082a3.651,3.651,0,0,1-1.976.412,1.828,1.828,0,0,1-.453-.124c-.33,0-.658.082-.988.082l-.041.042a4.84,4.84,0,0,1,.411,1.687,4.208,4.208,0,0,1-2.1,3.252,17.611,17.611,0,0,1-7,2.346,7.991,7.991,0,0,1-2.8.082,13.944,13.944,0,0,1-2.222-.7c-.33-.124-.7-.042-.988-.247-.247.165-.495.082-.782.082a20.238,20.238,0,0,1-2.222-.207,17.206,17.206,0,0,0-2.553-.246c-.493.041-.988.205-1.481.288a21.46,21.46,0,0,1-3.252.123m-9.714-6.832.124.205m1.4.411.247.247m20.868,1.976-.247.247c-.123-.247,0-.37.247-.247m0,.041c.247.289.412.577.7.865a6.044,6.044,0,0,0,3.787,1.4c.493,0,.946.041,1.441.041.123,0,.411-.041.411.123.042.207-.288.247-.411.247a9.926,9.926,0,0,1-1.565.042,7.382,7.382,0,0,1-3.663-1.358,2.579,2.579,0,0,1-.947-1.153m-1.646.205c.247-.123.618.782.741.947a4.878,4.878,0,0,0,2.676,1.522c.123.042.7.207.411.412-.246.165-.741-.042-.988-.123a5.286,5.286,0,0,1-2.427-1.565c-.124-.165-.782-.988-.412-1.193m-2.593,3.457.288-.288-.041-.041a15.188,15.188,0,0,1-2.346-.247c-.165-.042-.658,0-.741-.205-.082-.247.658-.618.823-.742.823-.7,1.358-1.811,2.552-1.769.288,0,.33.493.37.7a6.182,6.182,0,0,0,.742,1.687c.205.288.453.495.205.823a.473.473,0,0,0-.741.165m-9.385-.411h.082m8.478.041h.412l-.165.33m.205-.288h.495m.618.164v.124" transform="translate(-191.645 -116.11)" fill="rgba(0,0,0,0)" stroke="#1e3d2a" stroke-width="0.8"/>
            </g>
          </g>
        </g>
      </g>
    </g>
  </g>
</svg>
